<?xml version="1.0" standalone="no"?>
<!DOCTYPE svg PUBLIC "-//W3C//DTD SVG 20010904//EN"
 "http://www.w3.org/TR/2001/REC-SVG-20010904/DTD/svg10.dtd">
<svg version="1.0" xmlns="http://www.w3.org/2000/svg"
 width="700.000000pt" height="700.000000pt" viewBox="0 0 700.000000 700.000000"
 preserveAspectRatio="xMidYMid meet">
<metadata>
Created by potrace 1.14, written by Peter Selinger 2001-2017
</metadata>
<g transform="translate(0.000000,700.000000) scale(0.100000,-0.100000)"
fill="#000000" stroke="none">
<path d="M3278 6996 c-1 -2 -42 -6 -89 -10 -47 -4 -95 -8 -105 -10 -10 -2 -46
-7 -79 -12 -33 -4 -62 -8 -65 -9 -3 0 -27 -5 -55 -10 -27 -4 -54 -9 -60 -11
-5 -1 -46 -10 -90 -19 -160 -34 -552 -159 -580 -186 -5 -5 -15 -9 -22 -9 -19
0 -316 -149 -410 -206 -146 -88 -369 -244 -435 -304 -9 -8 -41 -35 -72 -60
-61 -50 -308 -298 -374 -375 -411 -480 -687 -1070 -792 -1689 -22 -132 -25
-150 -37 -286 -15 -161 -8 -605 11 -707 2 -10 7 -43 10 -73 7 -62 12 -94 26
-165 6 -27 12 -59 14 -70 48 -253 161 -577 293 -840 223 -446 503 -798 913
-1149 80 -69 418 -306 436 -306 2 0 23 -12 45 -26 60 -38 301 -157 402 -198
175 -72 465 -162 614 -191 303 -58 431 -70 733 -70 255 0 348 8 578 46 452 74
901 249 1317 514 60 38 258 183 311 227 124 103 259 232 384 368 8 8 47 54 86
100 460 551 732 1211 802 1940 14 155 7 557 -13 725 -66 552 -277 1102 -599
1567 -237 340 -574 673 -921 909 -254 173 -568 328 -860 424 -156 51 -396 109
-540 131 -27 4 -57 9 -65 10 -8 2 -42 6 -76 9 -33 4 -74 9 -90 11 -33 5 -540
14 -546 10z m517 -269 c22 -3 69 -8 105 -12 36 -3 83 -10 105 -15 22 -5 56
-11 75 -14 419 -64 935 -285 1320 -565 709 -516 1182 -1297 1305 -2156 24
-162 30 -268 30 -480 -1 -252 -7 -319 -46 -545 -192 -1105 -955 -2039 -2006
-2454 -126 -50 -343 -119 -413 -132 -14 -3 -41 -9 -60 -14 -19 -5 -48 -11 -65
-14 -16 -3 -55 -10 -85 -16 -30 -6 -77 -13 -105 -16 -27 -4 -53 -8 -56 -10 -3
-1 -55 -6 -115 -11 -197 -14 -561 -8 -674 11 -14 3 -47 7 -74 11 -172 21 -539
114 -651 164 -11 5 -58 24 -105 42 -109 42 -280 126 -400 197 -80 47 -251 157
-285 184 -5 4 -44 34 -86 66 -143 112 -312 270 -422 396 -34 39 -70 79 -80 91
-39 42 -185 244 -245 336 -128 201 -263 486 -339 719 -32 99 -85 298 -97 365
-51 275 -61 384 -60 655 0 174 6 307 18 380 2 14 7 47 11 73 4 27 8 57 10 67
2 9 6 33 9 51 61 359 215 764 420 1102 348 574 891 1041 1521 1307 147 63 420
149 550 175 131 25 326 55 405 61 52 3 97 8 99 10 5 4 438 -4 486 -9z"/>
<path d="M3225 6440 c-92 -10 -173 -21 -199 -26 -12 -2 -48 -9 -81 -15 -138
-24 -421 -106 -520 -149 -22 -10 -65 -28 -95 -40 -196 -79 -489 -257 -685
-415 -173 -140 -402 -377 -510 -529 -11 -15 -34 -47 -51 -70 -118 -160 -280
-470 -359 -691 -71 -197 -134 -452 -151 -612 -3 -32 -10 -89 -14 -128 -9 -76
-5 -511 5 -585 10 -74 25 -173 30 -203 3 -15 7 -37 9 -50 2 -12 14 -62 25
-112 211 -884 826 -1626 1661 -2002 181 -81 180 -81 181 -46 3 68 7 145 13
243 28 471 28 658 2 753 -29 107 -79 174 -197 264 -150 114 -184 155 -205 243
-11 48 -2 1371 9 1465 3 17 7 66 11 110 4 44 9 87 11 95 2 8 7 35 10 60 8 60
46 273 50 280 2 3 6 23 9 45 34 210 214 788 326 1040 99 223 158 323 242 407
73 73 139 98 169 62 10 -12 13 -124 15 -542 1 -290 5 -1227 9 -2082 3 -855 8
-1584 9 -1620 2 -36 7 -145 11 -244 3 -98 8 -211 10 -250 6 -117 18 -418 17
-459 0 -43 3 -45 54 -51 37 -5 61 -8 199 -26 176 -22 577 -3 785 38 72 14 85
20 86 37 3 31 15 261 19 350 2 44 6 132 10 195 3 63 8 151 10 195 8 162 16
322 20 390 2 39 7 126 10 195 3 69 8 152 10 185 2 33 7 125 11 205 3 80 7 156
7 170 2 20 -5 27 -38 38 -220 78 -300 122 -400 219 -106 103 -169 188 -235
320 -67 135 -126 317 -144 448 -3 22 -8 56 -11 75 -3 19 -8 53 -10 75 -6 55
-6 293 0 330 7 40 13 82 21 130 3 22 21 87 40 144 108 328 334 610 604 750
239 124 466 127 704 9 217 -106 414 -312 540 -561 103 -203 150 -402 149 -623
0 -94 -9 -226 -18 -279 -54 -314 -141 -528 -291 -715 -119 -149 -214 -216
-413 -291 -69 -26 -125 -51 -124 -56 0 -4 4 -75 8 -158 4 -82 8 -170 10 -195
1 -25 6 -110 9 -190 4 -80 9 -176 11 -215 5 -75 13 -244 20 -390 3 -49 7 -124
9 -165 7 -93 19 -344 20 -387 0 -19 6 -33 12 -33 21 0 275 134 378 199 88 55
272 187 302 215 6 6 36 31 65 56 70 58 238 227 310 310 177 205 358 494 464
740 66 152 146 390 170 508 2 9 8 37 14 62 12 53 18 87 27 149 4 25 8 54 10
65 19 107 27 569 11 696 -4 36 -10 83 -13 105 -4 35 -10 71 -30 180 -37 207
-140 505 -247 720 -203 406 -439 697 -828 1020 -156 131 -456 306 -686 401
-158 66 -409 143 -546 168 -115 21 -148 26 -192 31 -27 3 -61 8 -75 11 -42 9
-520 12 -595 4z"/>
<path d="M3717 4233 c-67 -117 -90 -175 -123 -318 -22 -96 -24 -116 -28 -227
-4 -115 6 -185 40 -288 53 -161 115 -286 183 -370 102 -126 279 -255 326 -236
25 9 17 37 -25 87 -69 82 -147 206 -183 292 -63 152 -136 380 -143 452 -8 79
-8 277 0 345 13 114 27 190 45 245 21 68 15 95 -23 95 -19 0 -33 -15 -69 -77z"/>
</g>
</svg>
